<?xml version="1.0" encoding="UTF-8" standalone="no"?>
<svg
   xmlns:dc="http://purl.org/dc/elements/1.1/"
   xmlns:cc="http://creativecommons.org/ns#"
   xmlns:rdf="http://www.w3.org/1999/02/22-rdf-syntax-ns#"
   xmlns:svg="http://www.w3.org/2000/svg"
   xmlns="http://www.w3.org/2000/svg"
   xmlns:sodipodi="http://sodipodi.sourceforge.net/DTD/sodipodi-0.dtd"
   xmlns:inkscape="http://www.inkscape.org/namespaces/inkscape"
   version="1.1"
   width="1207.0287"
   height="1233.1687"
   viewBox="0 0 965.62295 986.53498"
   id="svg2"
   inkscape:version="0.91 r13725"
   sodipodi:docname="gotmyvaccinesticker.svg">
  <metadata
     id="metadata822">
    <rdf:RDF>
      <cc:Work
         rdf:about="">
        <dc:format>image/svg+xml</dc:format>
        <dc:type
           rdf:resource="http://purl.org/dc/dcmitype/StillImage" />
        <dc:title></dc:title>
        <dc:creator>
          <cc:Agent>
            <dc:title>j4p4n</dc:title>
          </cc:Agent>
        </dc:creator>
        <dc:description></dc:description>
        <cc:license
           rdf:resource="http://creativecommons.org/publicdomain/zero/1.0/" />
      </cc:Work>
      <cc:License
         rdf:about="http://creativecommons.org/publicdomain/zero/1.0/">
        <cc:permits
           rdf:resource="http://creativecommons.org/ns#Reproduction" />
        <cc:permits
           rdf:resource="http://creativecommons.org/ns#Distribution" />
        <cc:permits
           rdf:resource="http://creativecommons.org/ns#DerivativeWorks" />
      </cc:License>
    </rdf:RDF>
  </metadata>
  <defs
     id="defs820">
    <clipPath
       id="cp0">
      <path
         inkscape:connector-curvature="0"
         id="path12"
         d="m 0,0 612,0 0,447.666 -612,0 z"
         transform="matrix(1,0,0,-1,0,447.667)" />
    </clipPath>
    <clipPath
       id="cp1">
      <path
         inkscape:connector-curvature="0"
         id="path21"
         d="m 0,447.667 612,0 L 612,0 0,0 Z"
         transform="matrix(1,0,0,-1,0,447.667)" />
    </clipPath>
    <clipPath
       id="cp8">
      <path
         inkscape:connector-curvature="0"
         id="path179"
         d="m 0,447.667 612,0 L 612,0 0,0 Z"
         transform="matrix(1,0,0,-1,0,447.667)" />
    </clipPath>
    <clipPath
       id="cp9">
      <path
         inkscape:connector-curvature="0"
         id="path196"
         d="m 0,447.667 612,0 L 612,0 0,0 Z"
         transform="matrix(1,0,0,-1,0,447.667)" />
    </clipPath>
    <clipPath
       id="cp10">
      <path
         inkscape:connector-curvature="0"
         id="path233"
         d="m 0,447.667 612,0 L 612,0 0,0 Z"
         transform="matrix(1,0,0,-1,0,447.667)" />
    </clipPath>
    <clipPath
       id="cp21">
      <path
         inkscape:connector-curvature="0"
         id="path456"
         d="m 402.76,291.884 8.903,-16.26 -8.903,-16.259 183.764,0 8.903,16.259 -8.903,16.26 z"
         transform="matrix(1,0,0,-1,0,447.667)" />
    </clipPath>
    <clipPath
       id="cp22">
      <path
         inkscape:connector-curvature="0"
         id="path473"
         d="m 323.426,259.301 8.864,-16.261 -8.864,-16.258 262.47,0 8.863,16.258 -8.863,16.261 z"
         transform="matrix(1,0,0,-1,0,447.667)" />
    </clipPath>
    <clipPath
       id="cp23">
      <path
         inkscape:connector-curvature="0"
         id="path490"
         d="m 0,447.667 612,0 L 612,0 0,0 Z"
         transform="matrix(1,0,0,-1,0,447.667)" />
    </clipPath>
    <clipPath
       id="cp26">
      <path
         inkscape:connector-curvature="0"
         id="path515"
         d="m 60.671,102.051 8.903,-16.26 -8.903,-16.259 166.093,0 8.903,16.259 -8.903,16.26 z"
         transform="matrix(1,0,0,-1,0,447.667)" />
    </clipPath>
    <clipPath
       id="cp27">
      <path
         inkscape:connector-curvature="0"
         id="path532"
         d="m 0,447.667 612,0 L 612,0 0,0 Z"
         transform="matrix(1,0,0,-1,0,447.667)" />
    </clipPath>
    <clipPath
       id="cp28">
      <path
         inkscape:connector-curvature="0"
         id="path567"
         d="m 0,447.667 612,0 L 612,0 0,0 Z"
         transform="matrix(1,0,0,-1,0,447.667)" />
    </clipPath>
    <clipPath
       id="cp35">
      <path
         inkscape:connector-curvature="0"
         id="path698"
         d="m 495.352,367.536 98.479,0 0,60.06603 -98.479,0 z"
         transform="matrix(1,0,0,-1,0,447.667)" />
    </clipPath>
    <filter
       id="blend_1">
      <feBlend
         mode="multiply"
         in2="BackgroundImage"
         in="SourceGraphic"
         id="feBlend26" />
    </filter>
    <clipPath
       id="cp2">
      <path
         inkscape:connector-curvature="0"
         id="path31"
         d="m 379.689,27.1104 140.978,0 0,113.8546 -140.978,0 z"
         transform="matrix(1,0,0,-1,0,447.667)" />
    </clipPath>
    <filter
       inkscape:collect="always"
       style="color-interpolation-filters:sRGB"
       id="filter7981"
       x="-0.15951325"
       width="1.3190265"
       y="-0.17478435"
       height="1.3495687">
      <feGaussianBlur
         inkscape:collect="always"
         stdDeviation="8.579044"
         id="feGaussianBlur7983" />
    </filter>
  </defs>
  <sodipodi:namedview
     pagecolor="#ffffff"
     bordercolor="#666666"
     borderopacity="1"
     objecttolerance="10"
     gridtolerance="10"
     guidetolerance="10"
     inkscape:pageopacity="0"
     inkscape:pageshadow="2"
     inkscape:window-width="1916"
     inkscape:window-height="1035"
     id="namedview818"
     showgrid="false"
     showguides="false"
     fit-margin-top="0"
     fit-margin-left="0"
     fit-margin-right="0"
     fit-margin-bottom="0"
     units="px"
     inkscape:zoom="0.40480601"
     inkscape:cx="-203.70118"
     inkscape:cy="498.89139"
     inkscape:window-x="4"
     inkscape:window-y="1"
     inkscape:window-maximized="1"
     inkscape:current-layer="g7827" />
  <g
     data-name="Layer"
     id="g18"
     transform="translate(54.564125,292.98823)" />
  <text
     style="font-size:19.5px;font-family:MyriadPro;fill:#ffffff"
     id="text74"
     font-size="19.5"
     xml:space="preserve"
     y="740.65521"
     x="54.564121"><tspan
       id="tspan76"
       x="414.07169"
       y="411.98383" /></text>
  <g
     id="g7827"
     transform="matrix(3,0,0,3,-463.91235,-257.76558)">
    <g
       id="g7985">
      <g
         style="fill:#000000;fill-opacity:1"
         transform="matrix(2.0646102,0,0,2.1146763,-758.10697,-478.72831)"
         clip-path="url(#cp8)"
         id="g7931">
        <path
           transform="matrix(1,0,0,-1,597.9912,345.391)"
           d="m 0,0 c 0,-42.598 -34.532,-77.13 -77.13,-77.13 -42.598,0 -77.13,34.532 -77.13,77.13 0,42.598 34.532,77.13 77.13,77.13 C -34.532,77.13 0,42.598 0,0"
           id="path7933"
           inkscape:connector-curvature="0"
           style="fill:#000000;fill-opacity:1" />
      </g>
      <g
         id="g181"
         clip-path="url(#cp8)"
         transform="matrix(2.0646102,0,0,2.1146763,-761.49451,-481.36332)">
        <path
           style="fill:#178480"
           inkscape:connector-curvature="0"
           id="path183"
           d="m 0,0 c 0,-42.598 -34.532,-77.13 -77.13,-77.13 -42.598,0 -77.13,34.532 -77.13,77.13 0,42.598 34.532,77.13 77.13,77.13 C -34.532,77.13 0,42.598 0,0"
           transform="matrix(1,0,0,-1,597.9912,345.391)" />
      </g>
      <ellipse
         transform="matrix(0.79990133,-0.60013153,0.60013153,0.79990133,0,0)"
         ry="50.723885"
         rx="71.145195"
         cy="400.80576"
         cx="97.759644"
         id="path7935"
         style="opacity:0.23600003;fill:#ced1bd;fill-opacity:1;fill-rule:evenodd;stroke:none;stroke-width:0.45333335;stroke-linecap:round;stroke-linejoin:round;stroke-miterlimit:4;stroke-dasharray:none;stroke-opacity:1;filter:url(#filter7981)" />
      <path
         d="m 418.83831,195.6141 c -0.789,-7.007 -6.667,-14.971 -13.129,-17.79 -3.155,-1.376 -5.859,-1.263 -7.716,0.02 l -0.004,-0.004 -0.072,0.052 c -0.035,0.026 -0.07,0.049 -0.104,0.076 l -3.176,2.288 0.01,0.014 c 1.847,-1.142 4.458,-1.202 7.488,0.121 6.462,2.819 12.34,10.783 13.129,17.789 0.374,3.313 -0.468,5.805 -2.133,7.227 l 0.01,0.014 3.087,-2.2 -0.007,-0.009 c 1.985,-1.331 3.025,-3.976 2.617,-7.598"
         id="path575"
         inkscape:connector-curvature="0"
         style="fill:#c6c6c6" />
      <path
         d="m 402.13521,180.39149 c -3.03,-1.323 -5.641,-1.264 -7.488,-0.121 -2.091,1.294 -3.2,3.98 -2.782,7.7 0.79,7.006 6.667,14.971 13.128,17.789 3.407,1.486 6.284,1.233 8.138,-0.352 1.665,-1.422 2.507,-3.914 2.133,-7.227 -0.789,-7.007 -6.667,-14.971 -13.129,-17.789"
         id="path577"
         inkscape:connector-curvature="0"
         style="fill:#a8a8a8" />
      <path
         d="m 396.01021,190.1766 c -0.494,-4.385 2.386,-6.51 6.427,-4.744 4.045,1.765 7.725,6.75 8.219,11.136 0.495,4.385 -2.385,6.509 -6.43,4.745 -4.041,-1.766 -7.722,-6.751 -8.216,-11.137"
         id="path579"
         inkscape:connector-curvature="0"
         style="fill:#898989" />
      <path
         d="m 383.29531,195.9686 14.312,-10.526 11.415,15.887 -14.143,10.392 z"
         id="path581"
         inkscape:connector-curvature="0"
         style="fill:#898989" />
      <g
         id="g583"
         style="opacity:0.69999701"
         transform="translate(-154.11679,-67.007299)">
        <clipPath
           id="cp29">
          <path
             transform="matrix(1,0,0,-1,0,447.667)"
             d="m 535.621,168.105 14.758,0 0,17.123 -14.758,0 z"
             id="path586"
             inkscape:connector-curvature="0" />
        </clipPath>
        <g
           clip-path="url(#cp29)"
           id="g588">
          <path
             transform="matrix(1,0,0,-1,535.6768,267.805)"
             d="m 0,0 c -0.494,4.386 2.386,6.51 6.431,4.745 4.041,-1.766 7.721,-6.75 8.215,-11.136 0.495,-4.385 -2.385,-6.51 -6.426,-4.745 C 4.175,-9.371 0.494,-4.386 0,0"
             id="path590"
             inkscape:connector-curvature="0"
             style="fill:#898989" />
        </g>
      </g>
      <path
         d="m 407.09711,209.118 c -1.003,-8.897 -8.467,-19.01 -16.672,-22.59 -4.007,-1.749 -7.441,-1.604 -9.798,0.026 l -0.005,-0.007 -0.092,0.067 c -0.045,0.031 -0.089,0.063 -0.132,0.095 l -4.033,2.906 0.012,0.019 c 2.346,-1.452 5.661,-1.527 9.509,0.153 8.206,3.58 15.67,13.692 16.672,22.59 0.475,4.207 -0.595,7.371 -2.709,9.177 l 0.013,0.018 3.921,-2.793 -0.009,-0.013 c 2.52,-1.69 3.841,-5.048 3.323,-9.648"
         id="path592"
         inkscape:connector-curvature="0"
         style="fill:#c6c6c6" />
      <path
         d="m 385.88611,189.787 c -3.848,-1.68 -7.163,-1.604 -9.509,-0.153 -2.656,1.642 -4.064,5.054 -3.532,9.778 1.002,8.896 8.466,19.011 16.671,22.59 4.325,1.887 7.978,1.564 10.333,-0.448 2.114,-1.806 3.183,-4.97 2.709,-9.177 -1.002,-8.898 -8.466,-19.01 -16.672,-22.59"
         id="path594"
         inkscape:connector-curvature="0"
         style="fill:#a8a8a8" />
      <path
         d="m 275.75331,272.5057 104.315,-76.967 15.137,21.066 -104.095,76.787 z"
         id="path596"
         inkscape:connector-curvature="0"
         style="fill:#ffffff" />
      <path
         d="m 311.86371,271.7479 c -4.736,-2.066 -9.044,-7.903 -9.623,-13.038 -0.285,-2.533 0.394,-4.418 1.721,-5.434 l -25.509,18.928 0.008,0.01 c -1.534,0.949 -2.347,2.918 -2.04,5.644 0.579,5.135 4.886,10.971 9.623,13.037 2.495,1.089 4.603,0.904 5.962,-0.258 l 0.007,0.01 25.465,-18.879 -0.005,-0.006 c -1.359,0.911 -3.322,0.984 -5.609,-0.014"
         id="path598"
         inkscape:connector-curvature="0"
         style="fill:#ea8823" />
      <path
         d="m 309.76801,253.1542 c -2.312,-1.009 -4.294,-0.925 -5.655,0.015 -0.015,0.01 -0.032,0.019 -0.047,0.03 l -0.105,0.077 c -1.326,1.016 -2.005,2.9 -1.72,5.434 0.579,5.134 4.886,10.971 9.623,13.038 2.287,0.998 4.25,0.925 5.609,0.013 1.455,-0.976 2.217,-2.915 1.917,-5.569 -0.578,-5.135 -4.887,-10.972 -9.622,-13.038"
         id="path600"
         inkscape:connector-curvature="0"
         style="fill:#ea8823" />
      <g
         id="g602"
         style="opacity:0.69999701"
         transform="translate(-154.11679,-67.007299)">
        <clipPath
           id="cp30">
          <path
             transform="matrix(1,0,0,-1,0,447.667)"
             d="m 451.468,94.0174 28.145,0 0,38.6696 -28.145,0 z"
             id="path605"
             inkscape:connector-curvature="0" />
        </clipPath>
        <g
           clip-path="url(#cp30)"
           id="g607">
          <path
             transform="matrix(1,0,0,-1,479.5488,328.7425)"
             d="m 0,0 c -0.578,5.135 -4.887,10.972 -9.622,13.038 -2.312,1.009 -4.295,0.926 -5.655,-0.015 -0.015,-0.01 -0.033,-0.018 -0.047,-0.029 l -0.105,-0.077 -5.646,-4.19 c 1.335,0.697 3.149,0.684 5.238,-0.227 4.735,-2.066 9.043,-7.903 9.622,-13.038 0.299,-2.654 -0.463,-4.593 -1.918,-5.568 l 0.005,-0.007 -19.953,-14.794 c 0.247,0.133 0.483,0.281 0.696,0.463 l 0.008,-0.011 25.464,18.88 -0.005,0.007 C -0.463,-4.593 0.3,-2.654 0,0"
             id="path609"
             inkscape:connector-curvature="0"
             style="fill:#b7b7b7" />
        </g>
      </g>
      <g
         id="g611"
         style="opacity:0.69999701"
         transform="translate(-154.11679,-67.007299)">
        <clipPath
           id="cp31">
          <path
             transform="matrix(1,0,0,-1,0,447.667)"
             d="m 427.497,86.1639 19.566,0 0,22.7021 -19.566,0 z"
             id="path614"
             inkscape:connector-curvature="0" />
        </clipPath>
        <g
           clip-path="url(#cp31)"
           id="g616">
          <path
             transform="matrix(1,0,0,-1,427.5703,345.9154)"
             d="m 0,0 c -0.655,5.814 3.161,8.63 8.523,6.291 5.363,-2.34 10.242,-8.949 10.897,-14.765 0.655,-5.814 -3.161,-8.63 -8.524,-6.291 C 5.533,-12.425 0.654,-5.814 0,0"
             id="path618"
             inkscape:connector-curvature="0"
             style="fill:#b7b7b7" />
        </g>
      </g>
      <path
         d="m 277.41841,281.8876 c -0.312,-2.773 1.509,-4.118 4.065,-3.001 2.56,1.115 4.888,4.27 5.202,7.044 0.312,2.774 -1.51,4.119 -4.07,3.002 -2.555,-1.116 -4.885,-4.271 -5.197,-7.045"
         id="path620"
         inkscape:connector-curvature="0"
         style="fill:#ffffff" />
      <path
         d="m 269.37541,285.5516 9.054,-6.659 7.221,10.051 -8.948,6.574 z"
         id="path622"
         inkscape:connector-curvature="0"
         style="fill:#ffffff" />
      <g
         id="g624"
         style="opacity:0.69999701"
         transform="translate(-154.11679,-67.007299)">
        <clipPath
           id="cp32">
          <path
             transform="matrix(1,0,0,-1,0,447.667)"
             d="m 422.359,84.6152 9.335,0 0,10.8327 -9.335,0 z"
             id="path627"
             inkscape:connector-curvature="0" />
        </clipPath>
        <g
           clip-path="url(#cp32)"
           id="g629">
          <path
             transform="matrix(1,0,0,-1,422.3936,355.6136)"
             d="M 0,0 C -0.312,2.773 1.509,4.118 4.068,3.002 6.625,1.885 8.953,-1.269 9.266,-4.044 9.578,-6.817 7.757,-8.162 5.2,-7.045 2.641,-5.929 0.312,-2.774 0,0"
             id="path631"
             inkscape:connector-curvature="0"
             style="fill:#b7b7b7" />
        </g>
      </g>
      <path
         d="m 270.57751,289.7987 c -0.18,-1.594 0.867,-2.366 2.335,-1.724 1.471,0.641 2.809,2.453 2.988,4.047 0.18,1.594 -0.867,2.366 -2.338,1.725 -1.467,-0.642 -2.805,-2.454 -2.985,-4.048"
         id="path633"
         inkscape:connector-curvature="0"
         style="fill:#ffffff" />
      <path
         d="m 258.30801,297.51059 12.85,-9.433 4.149,5.775 -12.789,9.384 z"
         id="path635"
         inkscape:connector-curvature="0"
         style="fill:#ffffff" />
      <g
         id="g637"
         style="opacity:0.69999701"
         transform="translate(-154.11679,-67.007299)">
        <clipPath
           id="cp33">
          <path
             transform="matrix(1,0,0,-1,0,447.667)"
             d="m 411.774,77.1209 5.363,0 0,6.2234 -5.363,0 z"
             id="path640"
             inkscape:connector-curvature="0" />
        </clipPath>
        <g
           clip-path="url(#cp33)"
           id="g642">
          <path
             transform="matrix(1,0,0,-1,411.7939,366.2728)"
             d="M 0,0 C -0.18,1.594 0.867,2.365 2.338,1.725 3.806,1.083 5.144,-0.729 5.323,-2.323 5.503,-3.917 4.456,-4.689 2.988,-4.047 1.518,-3.406 0.18,-1.595 0,0"
             id="path644"
             inkscape:connector-curvature="0"
             style="fill:#b7b7b7" />
        </g>
      </g>
      <path
         d="m 260.18981,300.8954 c -0.025,-0.226 0.123,-0.336 0.331,-0.244 0.209,0.091 0.399,0.348 0.425,0.574 0.025,0.226 -0.124,0.335 -0.332,0.244 -0.209,-0.091 -0.399,-0.347 -0.424,-0.574"
         id="path646"
         inkscape:connector-curvature="0"
         style="fill:#ffffff" />
      <path
         d="m 216.70061,332.2958 43.571,-31.645 0.589,0.82 -43.562,31.637 z"
         id="path648"
         inkscape:connector-curvature="0"
         style="fill:#ffffff" />
      <g
         id="g650"
         style="opacity:0.69999701"
         transform="translate(-154.11679,-67.007299)">
        <clipPath
           id="cp34">
          <path
             transform="matrix(1,0,0,-1,0,447.667)"
             d="m 370.726,47.5086 0.76,0 0,0.8828 -0.76,0 z"
             id="path653"
             inkscape:connector-curvature="0" />
        </clipPath>
        <g
           clip-path="url(#cp34)"
           id="g655">
          <path
             transform="matrix(1,0,0,-1,370.7285,399.5531)"
             d="M 0,0 C -0.025,0.228 0.123,0.336 0.331,0.246 0.54,0.154 0.729,-0.103 0.755,-0.329 0.78,-0.555 0.632,-0.665 0.424,-0.573 0.215,-0.482 0.025,-0.225 0,0"
             id="path657"
             inkscape:connector-curvature="0"
             style="fill:#b7b7b7" />
        </g>
      </g>
      <path
         d="m 377.95161,201.8172 c -0.655,-5.814 3.161,-8.631 8.523,-6.291 5.364,2.34 10.242,8.949 10.897,14.764 0.655,5.814 -3.161,8.631 -8.524,6.291 -5.363,-2.34 -10.241,-8.95 -10.896,-14.764"
         id="path659"
         inkscape:connector-curvature="0"
         style="fill:#ffffff" />
      <path
         d="m 333.31291,257.2049 -1.002,0.739 -0.278,-5.051 1.002,-0.739 z"
         id="path661"
         inkscape:connector-curvature="0"
         style="fill:#b7b7b7" />
      <path
         d="m 334.85391,256.0682 -0.501,0.369 -0.278,-5.05 0.501,-0.37 z"
         id="path663"
         inkscape:connector-curvature="0"
         style="fill:#b7b7b7" />
      <path
         d="m 336.97011,254.5057 -1.002,0.74 -0.406,-7.374 1.002,-0.739 z"
         id="path665"
         inkscape:connector-curvature="0"
         style="fill:#b7b7b7" />
      <path
         d="m 338.51021,253.37 -0.501,0.369 -0.406,-7.374 0.501,-0.369 z"
         id="path667"
         inkscape:connector-curvature="0"
         style="fill:#b7b7b7" />
      <path
         d="m 341.10291,251.4559 -1.002,0.739 -0.277,-5.051 1.001,-0.738 z"
         id="path669"
         inkscape:connector-curvature="0"
         style="fill:#b7b7b7" />
      <path
         d="m 342.64201,250.31919 -0.5,0.37 -0.278,-5.051 0.501,-0.369 z"
         id="path671"
         inkscape:connector-curvature="0"
         style="fill:#b7b7b7" />
      <path
         d="m 344.75921,248.7577 -1.001,0.739 -0.407,-7.374 1.002,-0.739 z"
         id="path673"
         inkscape:connector-curvature="0"
         style="fill:#b7b7b7" />
      <path
         d="m 346.29921,247.62 -0.501,0.37 -0.406,-7.373 0.501,-0.37 z"
         id="path675"
         inkscape:connector-curvature="0"
         style="fill:#b7b7b7" />
      <path
         d="m 348.85781,245.7333 -1.002,0.739 -0.278,-5.051 1.002,-0.74 z"
         id="path677"
         inkscape:connector-curvature="0"
         style="fill:#b7b7b7" />
      <path
         d="m 350.39781,244.5956 -0.501,0.37 -0.278,-5.051 0.501,-0.369 z"
         id="path679"
         inkscape:connector-curvature="0"
         style="fill:#b7b7b7" />
      <path
         d="m 352.51411,243.034 -1.002,0.739 -0.406,-7.373 1.002,-0.74 z"
         id="path681"
         inkscape:connector-curvature="0"
         style="fill:#b7b7b7" />
      <path
         d="m 354.05411,241.8973 -0.501,0.37 -0.406,-7.374 0.501,-0.37 z"
         id="path683"
         inkscape:connector-curvature="0"
         style="fill:#b7b7b7" />
      <path
         d="m 356.64591,239.9842 -1.001,0.739 -0.278,-5.051 1.002,-0.739 z"
         id="path685"
         inkscape:connector-curvature="0"
         style="fill:#b7b7b7" />
      <path
         d="m 358.18691,238.8475 -0.502,0.369 -0.277,-5.05 0.501,-0.37 z"
         id="path687"
         inkscape:connector-curvature="0"
         style="fill:#b7b7b7" />
      <path
         d="m 360.30311,237.285 -1.002,0.739 -0.406,-7.373 1.002,-0.739 z"
         id="path689"
         inkscape:connector-curvature="0"
         style="fill:#b7b7b7" />
      <path
         d="m 361.84321,236.14829 -0.501,0.37 -0.406,-7.374 0.501,-0.369 z"
         id="path691"
         inkscape:connector-curvature="0"
         style="fill:#b7b7b7" />
      <g
         transform="matrix(0.62509073,-0.42313182,0.74262456,1.0970758,3.2937587,0.65875175)"
         style="font-style:normal;font-weight:normal;font-size:43.50736237px;line-height:125%;font-family:sans-serif;letter-spacing:0px;word-spacing:0px;fill:#000000;fill-opacity:1;stroke:#000000;stroke-width:0.45333335;stroke-linecap:round;stroke-linejoin:round;stroke-miterlimit:4;stroke-dasharray:none;stroke-opacity:1"
         id="g7901">
        <path
           inkscape:connector-curvature="0"
           d="m 60.933072,249.44006 -4.282756,0 0,-32.97042 4.282756,0 0,32.97042 z"
           style="font-style:normal;font-variant:normal;font-weight:normal;font-stretch:normal;font-family:Thonburi;-inkscape-font-specification:Thonburi;fill:#000000;fill-opacity:1;stroke:#000000;stroke-width:0.45333335;stroke-linecap:round;stroke-linejoin:round;stroke-miterlimit:4;stroke-dasharray:none;stroke-opacity:1"
           id="path7903" />
        <path
           inkscape:connector-curvature="0"
           d="m 105.20521,247.9275 q -5.234479,2.51527 -9.993096,2.51527 -4.962559,0 -8.02167,-1.97143 -3.059112,-1.97142 -4.894579,-5.65935 -1.818471,-3.70493 -1.818471,-9.48325 0,-6.50911 1.733496,-10.11206 1.733496,-3.61995 4.877583,-5.67635 3.144087,-2.0564 7.460833,-2.0564 2.957141,0 5.37044,0.93473 2.430294,0.93472 3.857884,2.83817 1.42758,1.90345 1.42758,3.7729 l 0,0.22094 -3.95985,0 0,-0.22094 q 0,-1.13866 -0.88374,-2.12438 -0.883746,-1.00271 -2.328326,-1.56354 -1.427585,-0.56084 -3.246057,-0.56084 -4.809603,0 -7.341867,3.7729 -2.51527,3.75591 -2.51527,10.35 0,6.59408 2.58325,10.41797 2.600245,3.82389 7.307877,3.82389 2.770195,0 6.424133,-1.32562 l 0,-9.39827 -7.426842,0 0,-3.29704 11.386692,0 0,14.8027 z"
           style="font-style:normal;font-variant:normal;font-weight:normal;font-stretch:normal;font-family:Thonburi;-inkscape-font-specification:Thonburi;fill:#000000;fill-opacity:1;stroke:#000000;stroke-width:0.45333335;stroke-linecap:round;stroke-linejoin:round;stroke-miterlimit:4;stroke-dasharray:none;stroke-opacity:1"
           id="path7905" />
        <path
           inkscape:connector-curvature="0"
           d="m 123.79781,250.44277 q -6.1862,0 -10.09507,-4.53768 -3.90886,-4.55468 -3.90886,-12.95024 0,-8.39556 3.90886,-12.93324 3.90887,-4.53768 10.09507,-4.53768 6.18621,0 10.09507,4.53768 3.92586,4.53768 3.92586,12.93324 0,8.39556 -3.92586,12.95024 -3.90886,4.53768 -10.09507,4.53768 z m 0,-3.31404 q 4.50369,0 7.03596,-3.87487 2.53226,-3.89187 2.53226,-10.29901 0,-6.39014 -2.53226,-10.28201 -2.53227,-3.89187 -7.03596,-3.89187 -4.48669,0 -7.01896,3.89187 -2.53226,3.89187 -2.53226,10.28201 0,6.40714 2.53226,10.29901 2.53227,3.87487 7.01896,3.87487 z"
           style="font-style:normal;font-variant:normal;font-weight:normal;font-stretch:normal;font-family:Thonburi;-inkscape-font-specification:Thonburi;fill:#000000;fill-opacity:1;stroke:#000000;stroke-width:0.45333335;stroke-linecap:round;stroke-linejoin:round;stroke-miterlimit:4;stroke-dasharray:none;stroke-opacity:1"
           id="path7907" />
        <path
           inkscape:connector-curvature="0"
           d="m 151.65272,249.44006 0,-29.65638 -11.21674,0 0,-3.31404 26.52929,0 0,3.31404 -11.04679,0 0,29.65638 -4.26576,0 z"
           style="font-style:normal;font-variant:normal;font-weight:normal;font-stretch:normal;font-family:Thonburi;-inkscape-font-specification:Thonburi;fill:#000000;fill-opacity:1;stroke:#000000;stroke-width:0.45333335;stroke-linecap:round;stroke-linejoin:round;stroke-miterlimit:4;stroke-dasharray:none;stroke-opacity:1"
           id="path7909" />
        <path
           inkscape:connector-curvature="0"
           d="m 188.85492,249.44006 -3.63695,0 0,-32.97042 4.19778,0 10.24803,23.55516 9.41526,-23.55516 4.16379,0 0,32.97042 -3.80689,0 0,-19.64629 0.10197,-5.89729 -0.10197,0 -2.12438,5.91429 -5.84631,14.68373 -4.31674,0 -6.33916,-14.75172 -1.95443,-5.35344 -0.11897,0 0.11897,5.35344 0,19.69728 z"
           style="font-style:normal;font-variant:normal;font-weight:normal;font-stretch:normal;font-family:Thonburi;-inkscape-font-specification:Thonburi;fill:#000000;fill-opacity:1;stroke:#000000;stroke-width:0.45333335;stroke-linecap:round;stroke-linejoin:round;stroke-miterlimit:4;stroke-dasharray:none;stroke-opacity:1"
           id="path7911" />
        <path
           inkscape:connector-curvature="0"
           d="m 231.86943,249.44006 -4.26576,0 0,-15.53348 -10.6899,-17.43694 4.99655,0 8.2426,13.32413 8.12365,-13.32413 4.16379,0 -10.57093,17.43694 0,15.53348 z"
           style="font-style:normal;font-variant:normal;font-weight:normal;font-stretch:normal;font-family:Thonburi;-inkscape-font-specification:Thonburi;fill:#000000;fill-opacity:1;stroke:#000000;stroke-width:0.45333335;stroke-linecap:round;stroke-linejoin:round;stroke-miterlimit:4;stroke-dasharray:none;stroke-opacity:1"
           id="path7913" />
      </g>
      <g
         id="text7865"
         style="font-style:normal;font-weight:normal;font-size:43.50736237px;line-height:125%;font-family:sans-serif;letter-spacing:0px;word-spacing:0px;fill:#000000;fill-opacity:1;stroke:#000000;stroke-width:0.45333335;stroke-linecap:round;stroke-linejoin:round;stroke-miterlimit:4;stroke-dasharray:none;stroke-opacity:1"
         transform="matrix(0.62509073,-0.42313182,0.74262456,1.0970758,0,0)">
        <path
           id="path7889"
           style="font-style:normal;font-variant:normal;font-weight:normal;font-stretch:normal;font-family:Thonburi;-inkscape-font-specification:Thonburi;fill:#ffcc00;stroke:#000000;stroke-width:0.45333335;stroke-linecap:round;stroke-linejoin:round;stroke-miterlimit:4;stroke-dasharray:none;stroke-opacity:1"
           d="m 60.933072,249.44006 -4.282756,0 0,-32.97042 4.282756,0 0,32.97042 z"
           inkscape:connector-curvature="0" />
        <path
           id="path7891"
           style="font-style:normal;font-variant:normal;font-weight:normal;font-stretch:normal;font-family:Thonburi;-inkscape-font-specification:Thonburi;fill:#ffcc00;stroke:#000000;stroke-width:0.45333335;stroke-linecap:round;stroke-linejoin:round;stroke-miterlimit:4;stroke-dasharray:none;stroke-opacity:1"
           d="m 105.20521,247.9275 q -5.234479,2.51527 -9.993096,2.51527 -4.962559,0 -8.02167,-1.97143 -3.059112,-1.97142 -4.894579,-5.65935 -1.818471,-3.70493 -1.818471,-9.48325 0,-6.50911 1.733496,-10.11206 1.733496,-3.61995 4.877583,-5.67635 3.144087,-2.0564 7.460833,-2.0564 2.957141,0 5.37044,0.93473 2.430294,0.93472 3.857884,2.83817 1.42758,1.90345 1.42758,3.7729 l 0,0.22094 -3.95985,0 0,-0.22094 q 0,-1.13866 -0.88374,-2.12438 -0.883746,-1.00271 -2.328326,-1.56354 -1.427585,-0.56084 -3.246057,-0.56084 -4.809603,0 -7.341867,3.7729 -2.51527,3.75591 -2.51527,10.35 0,6.59408 2.58325,10.41797 2.600245,3.82389 7.307877,3.82389 2.770195,0 6.424133,-1.32562 l 0,-9.39827 -7.426842,0 0,-3.29704 11.386692,0 0,14.8027 z"
           inkscape:connector-curvature="0" />
        <path
           id="path7893"
           style="font-style:normal;font-variant:normal;font-weight:normal;font-stretch:normal;font-family:Thonburi;-inkscape-font-specification:Thonburi;fill:#ffcc00;stroke:#000000;stroke-width:0.45333335;stroke-linecap:round;stroke-linejoin:round;stroke-miterlimit:4;stroke-dasharray:none;stroke-opacity:1"
           d="m 123.79781,250.44277 q -6.1862,0 -10.09507,-4.53768 -3.90886,-4.55468 -3.90886,-12.95024 0,-8.39556 3.90886,-12.93324 3.90887,-4.53768 10.09507,-4.53768 6.18621,0 10.09507,4.53768 3.92586,4.53768 3.92586,12.93324 0,8.39556 -3.92586,12.95024 -3.90886,4.53768 -10.09507,4.53768 z m 0,-3.31404 q 4.50369,0 7.03596,-3.87487 2.53226,-3.89187 2.53226,-10.29901 0,-6.39014 -2.53226,-10.28201 -2.53227,-3.89187 -7.03596,-3.89187 -4.48669,0 -7.01896,3.89187 -2.53226,3.89187 -2.53226,10.28201 0,6.40714 2.53226,10.29901 2.53227,3.87487 7.01896,3.87487 z"
           inkscape:connector-curvature="0" />
        <path
           id="path7895"
           style="font-style:normal;font-variant:normal;font-weight:normal;font-stretch:normal;font-family:Thonburi;-inkscape-font-specification:Thonburi;fill:#ffcc00;stroke:#000000;stroke-width:0.45333335;stroke-linecap:round;stroke-linejoin:round;stroke-miterlimit:4;stroke-dasharray:none;stroke-opacity:1"
           d="m 151.65272,249.44006 0,-29.65638 -11.21674,0 0,-3.31404 26.52929,0 0,3.31404 -11.04679,0 0,29.65638 -4.26576,0 z"
           inkscape:connector-curvature="0" />
        <path
           id="path7897"
           style="font-style:normal;font-variant:normal;font-weight:normal;font-stretch:normal;font-family:Thonburi;-inkscape-font-specification:Thonburi;fill:#ffcc00;stroke:#000000;stroke-width:0.45333335;stroke-linecap:round;stroke-linejoin:round;stroke-miterlimit:4;stroke-dasharray:none;stroke-opacity:1"
           d="m 188.85492,249.44006 -3.63695,0 0,-32.97042 4.19778,0 10.24803,23.55516 9.41526,-23.55516 4.16379,0 0,32.97042 -3.80689,0 0,-19.64629 0.10197,-5.89729 -0.10197,0 -2.12438,5.91429 -5.84631,14.68373 -4.31674,0 -6.33916,-14.75172 -1.95443,-5.35344 -0.11897,0 0.11897,5.35344 0,19.69728 z"
           inkscape:connector-curvature="0" />
        <path
           id="path7899"
           style="font-style:normal;font-variant:normal;font-weight:normal;font-stretch:normal;font-family:Thonburi;-inkscape-font-specification:Thonburi;fill:#ffcc00;stroke:#000000;stroke-width:0.45333335;stroke-linecap:round;stroke-linejoin:round;stroke-miterlimit:4;stroke-dasharray:none;stroke-opacity:1"
           d="m 231.86943,249.44006 -4.26576,0 0,-15.53348 -10.6899,-17.43694 4.99655,0 8.2426,13.32413 8.12365,-13.32413 4.16379,0 -10.57093,17.43694 0,15.53348 z"
           inkscape:connector-curvature="0" />
      </g>
      <g
         transform="matrix(0.6339507,-0.40973826,0.71911799,1.1126257,3.2937587,0.65875175)"
         style="font-style:normal;font-weight:normal;font-size:43.50736237px;line-height:125%;font-family:sans-serif;letter-spacing:0px;word-spacing:0px;fill:#000000;fill-opacity:1;stroke:#000000;stroke-width:0.45333335;stroke-linecap:round;stroke-linejoin:round;stroke-miterlimit:4;stroke-dasharray:none;stroke-opacity:1"
         id="g7915">
        <path
           inkscape:connector-curvature="0"
           d="m 85.688131,343.65516 3.99384,0 -13.46009,32.97042 -4.299751,0 -12.559352,-32.97042 4.673642,0 10.451964,27.63397 11.199747,-27.63397 z"
           style="font-style:normal;font-variant:normal;font-weight:normal;font-stretch:normal;font-family:Thonburi;-inkscape-font-specification:Thonburi;fill:#000000;fill-opacity:1;stroke:#000000;stroke-width:0.45333335;stroke-linecap:round;stroke-linejoin:round;stroke-miterlimit:4;stroke-dasharray:none;stroke-opacity:1"
           id="path7917" />
        <path
           inkscape:connector-curvature="0"
           d="m 94.950441,376.62558 -3.976844,0 13.511073,-32.97042 4.33374,0 12.47438,32.97042 -4.63965,0 -3.41601,-9.07536 -14.547775,0 -3.738914,9.07536 z m 5.030539,-12.37241 11.98152,0 -5.77832,-15.31255 -6.2032,15.31255 z"
           style="font-style:normal;font-variant:normal;font-weight:normal;font-stretch:normal;font-family:Thonburi;-inkscape-font-specification:Thonburi;fill:#000000;fill-opacity:1;stroke:#000000;stroke-width:0.45333335;stroke-linecap:round;stroke-linejoin:round;stroke-miterlimit:4;stroke-dasharray:none;stroke-opacity:1"
           id="path7919" />
        <path
           inkscape:connector-curvature="0"
           d="m 144.661,369.52164 3.95985,0 0,0.22094 q 0,1.95443 -1.34261,3.97684 -1.34261,2.00542 -3.67093,2.95715 -2.31133,0.95172 -5.43842,0.95172 -6.28817,0 -10.28201,-4.36773 -3.99384,-4.38473 -3.99384,-13.12019 0,-8.68448 3.97684,-13.0862 3.97685,-4.40172 10.333,-4.40172 3.0931,0 5.40443,0.95172 2.32832,0.93473 3.67093,2.99113 1.34261,2.05641 1.34261,3.94286 l 0,0.20394 -3.95985,0 0,-0.20394 q 0,-1.20665 -0.76478,-2.32833 -0.74778,-1.12167 -2.15837,-1.68251 -1.41059,-0.56083 -3.39901,-0.56083 -5.04753,0 -7.52881,3.99384 -2.46429,3.99384 -2.46429,10.18004 0,6.23719 2.48128,10.21403 2.48128,3.97685 7.49482,3.97685 3.45,0 4.89458,-1.42759 1.44458,-1.42758 1.44458,-3.16108 l 0,-0.22094 z"
           style="font-style:normal;font-variant:normal;font-weight:normal;font-stretch:normal;font-family:Thonburi;-inkscape-font-specification:Thonburi;fill:#000000;fill-opacity:1;stroke:#000000;stroke-width:0.45333335;stroke-linecap:round;stroke-linejoin:round;stroke-miterlimit:4;stroke-dasharray:none;stroke-opacity:1"
           id="path7921" />
        <path
           inkscape:connector-curvature="0"
           d="m 172.95778,369.52164 3.95985,0 0,0.22094 q 0,1.95443 -1.34261,3.97684 -1.34261,2.00542 -3.67093,2.95715 -2.31133,0.95172 -5.43842,0.95172 -6.28818,0 -10.28202,-4.36773 -3.99384,-4.38473 -3.99384,-13.12019 0,-8.68448 3.97685,-13.0862 3.97684,-4.40172 10.333,-4.40172 3.0931,0 5.40443,0.95172 2.32832,0.93473 3.67093,2.99113 1.34261,2.05641 1.34261,3.94286 l 0,0.20394 -3.95985,0 0,-0.20394 q 0,-1.20665 -0.76478,-2.32833 -0.74778,-1.12167 -2.15837,-1.68251 -1.41059,-0.56083 -3.39901,-0.56083 -5.04753,0 -7.52881,3.99384 -2.46429,3.99384 -2.46429,10.18004 0,6.23719 2.48128,10.21403 2.48128,3.97685 7.49482,3.97685 3.45,0 4.89458,-1.42759 1.44458,-1.42758 1.44458,-3.16108 l 0,-0.22094 z"
           style="font-style:normal;font-variant:normal;font-weight:normal;font-stretch:normal;font-family:Thonburi;-inkscape-font-specification:Thonburi;fill:#000000;fill-opacity:1;stroke:#000000;stroke-width:0.45333335;stroke-linecap:round;stroke-linejoin:round;stroke-miterlimit:4;stroke-dasharray:none;stroke-opacity:1"
           id="path7923" />
        <path
           inkscape:connector-curvature="0"
           d="m 185.92502,376.62558 -4.28276,0 0,-32.97042 4.28276,0 0,32.97042 z"
           style="font-style:normal;font-variant:normal;font-weight:normal;font-stretch:normal;font-family:Thonburi;-inkscape-font-specification:Thonburi;fill:#000000;fill-opacity:1;stroke:#000000;stroke-width:0.45333335;stroke-linecap:round;stroke-linejoin:round;stroke-miterlimit:4;stroke-dasharray:none;stroke-opacity:1"
           id="path7925" />
        <path
           inkscape:connector-curvature="0"
           d="m 196.12206,376.62558 -3.94286,0 0,-32.97042 4.24877,0 15.05763,23.43619 1.3766,2.60024 -0.085,-2.58325 0,-23.45318 3.95985,0 0,32.97042 -4.21477,0 -15.09162,-23.53816 -1.3936,-2.65123 0.085,2.65123 0,23.53816 z"
           style="font-style:normal;font-variant:normal;font-weight:normal;font-stretch:normal;font-family:Thonburi;-inkscape-font-specification:Thonburi;fill:#000000;fill-opacity:1;stroke:#000000;stroke-width:0.45333335;stroke-linecap:round;stroke-linejoin:round;stroke-miterlimit:4;stroke-dasharray:none;stroke-opacity:1"
           id="path7927" />
        <path
           inkscape:connector-curvature="0"
           d="m 223.02524,376.62558 0,-32.97042 18.62659,0 0,3.63694 -14.34383,0 0,10.38398 12.52536,0 0,3.29705 -12.52536,0 0,12.01551 15.4995,0 0,3.63694 -19.78226,0 z"
           style="font-style:normal;font-variant:normal;font-weight:normal;font-stretch:normal;font-family:Thonburi;-inkscape-font-specification:Thonburi;fill:#000000;fill-opacity:1;stroke:#000000;stroke-width:0.45333335;stroke-linecap:round;stroke-linejoin:round;stroke-miterlimit:4;stroke-dasharray:none;stroke-opacity:1"
           id="path7929" />
      </g>
      <g
         id="text7869"
         style="font-style:normal;font-weight:normal;font-size:43.50736237px;line-height:125%;font-family:sans-serif;letter-spacing:0px;word-spacing:0px;fill:#000000;fill-opacity:1;stroke:#000000;stroke-width:0.45333335;stroke-linecap:round;stroke-linejoin:round;stroke-miterlimit:4;stroke-dasharray:none;stroke-opacity:1"
         transform="matrix(0.6339507,-0.40973826,0.71911799,1.1126257,0,0)">
        <path
           id="path7874"
           style="font-style:normal;font-variant:normal;font-weight:normal;font-stretch:normal;font-family:Thonburi;-inkscape-font-specification:Thonburi;fill:#ffcc00;stroke:#000000;stroke-width:0.45333335;stroke-linecap:round;stroke-linejoin:round;stroke-miterlimit:4;stroke-dasharray:none;stroke-opacity:1"
           d="m 85.688131,343.65516 3.99384,0 -13.46009,32.97042 -4.299751,0 -12.559352,-32.97042 4.673642,0 10.451964,27.63397 11.199747,-27.63397 z"
           inkscape:connector-curvature="0" />
        <path
           id="path7876"
           style="font-style:normal;font-variant:normal;font-weight:normal;font-stretch:normal;font-family:Thonburi;-inkscape-font-specification:Thonburi;fill:#ffcc00;stroke:#000000;stroke-width:0.45333335;stroke-linecap:round;stroke-linejoin:round;stroke-miterlimit:4;stroke-dasharray:none;stroke-opacity:1"
           d="m 94.950441,376.62558 -3.976844,0 13.511073,-32.97042 4.33374,0 12.47438,32.97042 -4.63965,0 -3.41601,-9.07536 -14.547775,0 -3.738914,9.07536 z m 5.030539,-12.37241 11.98152,0 -5.77832,-15.31255 -6.2032,15.31255 z"
           inkscape:connector-curvature="0" />
        <path
           id="path7878"
           style="font-style:normal;font-variant:normal;font-weight:normal;font-stretch:normal;font-family:Thonburi;-inkscape-font-specification:Thonburi;fill:#ffcc00;stroke:#000000;stroke-width:0.45333335;stroke-linecap:round;stroke-linejoin:round;stroke-miterlimit:4;stroke-dasharray:none;stroke-opacity:1"
           d="m 144.661,369.52164 3.95985,0 0,0.22094 q 0,1.95443 -1.34261,3.97684 -1.34261,2.00542 -3.67093,2.95715 -2.31133,0.95172 -5.43842,0.95172 -6.28817,0 -10.28201,-4.36773 -3.99384,-4.38473 -3.99384,-13.12019 0,-8.68448 3.97684,-13.0862 3.97685,-4.40172 10.333,-4.40172 3.0931,0 5.40443,0.95172 2.32832,0.93473 3.67093,2.99113 1.34261,2.05641 1.34261,3.94286 l 0,0.20394 -3.95985,0 0,-0.20394 q 0,-1.20665 -0.76478,-2.32833 -0.74778,-1.12167 -2.15837,-1.68251 -1.41059,-0.56083 -3.39901,-0.56083 -5.04753,0 -7.52881,3.99384 -2.46429,3.99384 -2.46429,10.18004 0,6.23719 2.48128,10.21403 2.48128,3.97685 7.49482,3.97685 3.45,0 4.89458,-1.42759 1.44458,-1.42758 1.44458,-3.16108 l 0,-0.22094 z"
           inkscape:connector-curvature="0" />
        <path
           id="path7880"
           style="font-style:normal;font-variant:normal;font-weight:normal;font-stretch:normal;font-family:Thonburi;-inkscape-font-specification:Thonburi;fill:#ffcc00;stroke:#000000;stroke-width:0.45333335;stroke-linecap:round;stroke-linejoin:round;stroke-miterlimit:4;stroke-dasharray:none;stroke-opacity:1"
           d="m 172.95778,369.52164 3.95985,0 0,0.22094 q 0,1.95443 -1.34261,3.97684 -1.34261,2.00542 -3.67093,2.95715 -2.31133,0.95172 -5.43842,0.95172 -6.28818,0 -10.28202,-4.36773 -3.99384,-4.38473 -3.99384,-13.12019 0,-8.68448 3.97685,-13.0862 3.97684,-4.40172 10.333,-4.40172 3.0931,0 5.40443,0.95172 2.32832,0.93473 3.67093,2.99113 1.34261,2.05641 1.34261,3.94286 l 0,0.20394 -3.95985,0 0,-0.20394 q 0,-1.20665 -0.76478,-2.32833 -0.74778,-1.12167 -2.15837,-1.68251 -1.41059,-0.56083 -3.39901,-0.56083 -5.04753,0 -7.52881,3.99384 -2.46429,3.99384 -2.46429,10.18004 0,6.23719 2.48128,10.21403 2.48128,3.97685 7.49482,3.97685 3.45,0 4.89458,-1.42759 1.44458,-1.42758 1.44458,-3.16108 l 0,-0.22094 z"
           inkscape:connector-curvature="0" />
        <path
           id="path7882"
           style="font-style:normal;font-variant:normal;font-weight:normal;font-stretch:normal;font-family:Thonburi;-inkscape-font-specification:Thonburi;fill:#ffcc00;stroke:#000000;stroke-width:0.45333335;stroke-linecap:round;stroke-linejoin:round;stroke-miterlimit:4;stroke-dasharray:none;stroke-opacity:1"
           d="m 185.92502,376.62558 -4.28276,0 0,-32.97042 4.28276,0 0,32.97042 z"
           inkscape:connector-curvature="0" />
        <path
           id="path7884"
           style="font-style:normal;font-variant:normal;font-weight:normal;font-stretch:normal;font-family:Thonburi;-inkscape-font-specification:Thonburi;fill:#ffcc00;stroke:#000000;stroke-width:0.45333335;stroke-linecap:round;stroke-linejoin:round;stroke-miterlimit:4;stroke-dasharray:none;stroke-opacity:1"
           d="m 196.12206,376.62558 -3.94286,0 0,-32.97042 4.24877,0 15.05763,23.43619 1.3766,2.60024 -0.085,-2.58325 0,-23.45318 3.95985,0 0,32.97042 -4.21477,0 -15.09162,-23.53816 -1.3936,-2.65123 0.085,2.65123 0,23.53816 z"
           inkscape:connector-curvature="0" />
        <path
           id="path7886"
           style="font-style:normal;font-variant:normal;font-weight:normal;font-stretch:normal;font-family:Thonburi;-inkscape-font-specification:Thonburi;fill:#ffcc00;stroke:#000000;stroke-width:0.45333335;stroke-linecap:round;stroke-linejoin:round;stroke-miterlimit:4;stroke-dasharray:none;stroke-opacity:1"
           d="m 223.02524,376.62558 0,-32.97042 18.62659,0 0,3.63694 -14.34383,0 0,10.38398 12.52536,0 0,3.29705 -12.52536,0 0,12.01551 15.4995,0 0,3.63694 -19.78226,0 z"
           inkscape:connector-curvature="0" />
      </g>
    </g>
  </g>
  <g
     data-name="Layer"
     id="g695"
     transform="translate(54.564125,292.98823)" />
</svg>
